<?xml version="1.0" standalone="no"?>
<!DOCTYPE svg PUBLIC "-//W3C//DTD SVG 20010904//EN"
 "http://www.w3.org/TR/2001/REC-SVG-20010904/DTD/svg10.dtd">
<svg version="1.0" xmlns="http://www.w3.org/2000/svg"
 width="260.000000pt" height="260.000000pt" viewBox="0 0 260.000000 260.000000"
 preserveAspectRatio="xMidYMid meet">
<metadata>
Created by potrace 1.11, written by Peter Selinger 2001-2013
</metadata>
<g transform="translate(0.000000,260.000000) scale(0.100000,-0.100000)"
fill="#000000" stroke="none">
<path d="M1265 2571 c-34 -20 -340 -197 -782 -452 l-303 -174 0 -648 c0 -608
1 -648 18 -654 9 -4 50 -26 90 -50 41 -24 78 -43 83 -43 5 0 9 -4 9 -10 0 -5
4 -10 10 -10 8 0 138 -72 180 -100 8 -6 22 -13 30 -17 8 -4 31 -16 50 -28 19
-12 55 -33 80 -47 71 -40 352 -202 380 -219 14 -9 62 -37 107 -62 l82 -47 35
19 c19 11 53 31 75 45 22 15 43 26 46 26 2 0 50 27 105 60 55 33 103 60 106
60 3 0 18 8 32 19 15 10 47 29 72 43 44 24 210 120 240 138 8 5 41 24 73 42
32 18 66 38 76 43 9 6 72 42 139 80 l122 70 0 645 0 646 -91 52 c-50 29 -95
52 -100 52 -5 0 -9 5 -9 10 0 6 -4 10 -10 10 -5 0 -31 13 -58 29 -26 15 -68
39 -93 53 -24 14 -143 83 -264 153 -121 70 -236 136 -255 147 -19 11 -48 27
-65 37 -16 10 -52 30 -80 46 -27 15 -59 34 -70 41 -24 17 -23 17 -60 -5z"/>
</g>
</svg>
